<svg width="156" height="157" viewBox="0 0 156 157" fill="none" xmlns="http://www.w3.org/2000/svg">
<path fill-rule="evenodd" clip-rule="evenodd" d="M83 5C83 6.38086 82.4404 7.63086 81.5352 8.53564L147.465 74.4644C148.369 73.5596 149.619 73 151 73C153.762 73 156 75.2388 156 78C156 80.7612 153.762 83 151 83C149.835 83 148.763 82.6016 147.913 81.9336L81.458 148.388C82.4082 149.298 83 150.58 83 152C83 154.761 80.7617 157 78 157C75.2383 157 73 154.761 73 152C73 151.14 73.2168 150.33 73.5996 149.624C73.8486 149.164 74.168 148.747 74.542 148.388L8.08691 81.9336C7.2373 82.6016 6.16504 83 5 83C2.23828 83 0 80.7612 0 78C0 75.2388 2.23828 73 5 73C6.38086 73 7.63086 73.5601 8.53613 74.4648L74.4648 8.53564C73.5596 7.63086 73 6.38086 73 5C73 2.23877 75.2383 0 78 0C80.7617 0 83 2.23877 83 5ZM146.345 76.1729C146.122 76.7388 146 77.355 146 78C146 78.8711 146.223 79.6899 146.614 80.4033L79.7158 147.302C79.4551 147.207 79.1846 147.133 78.9062 147.082C78.6123 147.028 78.3096 147 78 147C77.5811 147 77.1748 147.052 76.7861 147.149C76.6152 147.191 76.4473 147.243 76.2842 147.302L9.38574 80.4033C9.77734 79.6899 10 78.8711 10 78C10 77.355 9.87793 76.7388 9.65527 76.1729L76.1729 9.65576C76.7393 9.87793 77.3555 10 78 10C78.6445 10 79.2607 9.87793 79.8271 9.65576L146.345 76.1729Z" fill="black"/>
<path fill-rule="evenodd" clip-rule="evenodd" d="M77.7611 63.4132C77.8409 63.493 77.92 63.5733 77.9982 63.6541L77.9997 63.6525L78.002 63.6548C78.0805 63.5738 78.1597 63.4932 78.2398 63.4132C86.2959 55.3571 99.3575 55.3571 107.414 63.4132C115.47 71.4693 115.47 84.5309 107.414 92.5871C107.334 92.6671 107.253 92.7463 107.172 92.8248L107.174 92.8264L77.9997 122L48.8259 92.8264L48.8282 92.8241C48.7474 92.7459 48.6671 92.6669 48.5873 92.5871C40.5311 84.5309 40.5311 71.4693 48.5873 63.4132C56.6434 55.3571 69.705 55.3571 77.7611 63.4132Z" fill="#B2B2FF"/>
</svg>
