<svg width="96" height="96" viewBox="0 0 96 96" fill="none" xmlns="http://www.w3.org/2000/svg">
<g clip-path="url(#clip0_3_90)">
<rect width="96" height="96" rx="48" fill="#F3ACCC"/>
<rect width="96" height="96" fill="#F3ACCC"/>
<path fill-rule="evenodd" clip-rule="evenodd" d="M56.662 27.162C56.662 27.3998 56.6518 27.6353 56.6319 27.868C56.7823 27.6894 56.9416 27.5157 57.1098 27.3475C60.2973 24.16 65.4652 24.16 68.6526 27.3475C71.84 30.5349 71.84 35.7028 68.6526 38.8903C68.4844 39.0584 68.3108 39.2177 68.1322 39.3681C68.3648 39.3482 68.6002 39.338 68.838 39.338C73.3457 39.338 77 42.9923 77 47.5C77 52.0077 73.3457 55.662 68.838 55.662C68.6002 55.662 68.3648 55.6518 68.1322 55.6319C68.3108 55.7823 68.4844 55.9416 68.6526 56.1097C71.84 59.2972 71.84 64.4651 68.6526 67.6525C65.4652 70.84 60.2973 70.84 57.1098 67.6525C56.9416 67.4843 56.7823 67.3106 56.6319 67.132C56.6518 67.3647 56.662 67.6002 56.662 67.838C56.662 72.3457 53.0078 76 48.5 76C43.9923 76 40.338 72.3457 40.338 67.838C40.338 67.6002 40.3482 67.3647 40.3682 67.132C40.2177 67.3106 40.0584 67.4843 39.8902 67.6525C36.7028 70.84 31.5349 70.84 28.3475 67.6525C25.16 64.4651 25.16 59.2972 28.3475 56.1097C28.5156 55.9416 28.6893 55.7823 28.8679 55.6319C28.6352 55.6518 28.3998 55.662 28.162 55.662C23.6542 55.662 20 52.0077 20 47.5C20 42.9923 23.6542 39.338 28.162 39.338C28.3998 39.338 28.6352 39.3482 28.8679 39.3681C28.6893 39.2177 28.5156 39.0584 28.3475 38.8903C25.16 35.7028 25.16 30.5349 28.3475 27.3475C31.5349 24.16 36.7028 24.16 39.8902 27.3475C40.0584 27.5157 40.2177 27.6894 40.3682 27.868C40.3482 27.6353 40.338 27.3998 40.338 27.162C40.338 22.6542 43.9923 19 48.5 19C53.0078 19 56.662 22.6542 56.662 27.162Z" fill="#FFFF00"/>
</g>
<defs>
<clipPath id="clip0_3_90">
<rect width="96" height="96" rx="48" fill="white"/>
</clipPath>
</defs>
</svg>
